<?xml version="1.0" encoding="utf-8"?>
<!-- Generator: Adobe Illustrator 24.1.2, SVG Export Plug-In . SVG Version: 6.00 Build 0)  -->
<svg version="1.1" id="Слой_1" xmlns="http://www.w3.org/2000/svg" xmlns:xlink="http://www.w3.org/1999/xlink" x="0px" y="0px"
	 viewBox="0 0 1105.5 1105.5" style="enable-background:new 0 0 1105.5 1105.5;" xml:space="preserve">
<path style="fill-rule:evenodd;clip-rule:evenodd;fill:#016243;" d="M989.4,371.9c-23.8-57.3-58.6-109.4-102.5-153.3l56.6-56.6
	c51.3,51.3,92,112.3,119.8,179.3c27.8,67.1,42.1,138.9,42.1,211.5c0,72.6-14.3,144.5-42.1,211.5c-27.8,67.1-68.5,128-119.8,179.3
	L887,887c43.9-43.9,78.7-96,102.5-153.3c23.8-57.3,36-118.8,36-180.9S1013.2,429.2,989.4,371.9z"/>
<path style="fill-rule:evenodd;clip-rule:evenodd;fill:#00C172;" d="M733.6,989.4C791,965.7,843.1,930.9,887,887l56.6,56.6
	c-51.3,51.3-112.3,92-179.3,119.8c-67.1,27.8-138.9,42.1-211.5,42.1c-72.6,0-144.5-14.3-211.5-42.1c-67.1-27.8-128-68.5-179.3-119.8
	l56.6-56.6c43.9,43.9,96,78.7,153.3,102.5c57.3,23.8,118.8,36,180.9,36S676.3,1013.2,733.6,989.4z"/>
<path style="fill-rule:evenodd;clip-rule:evenodd;fill:#FBFBFB;" d="M887,218.5C798.3,129.9,678.1,80.1,552.8,80.1
	s-245.6,49.8-334.2,138.4C129.9,307.2,80.1,427.4,80.1,552.8S129.9,798.3,218.5,887l-56.6,56.6C58.2,839.9,0,699.4,0,552.8
	c0-146.6,58.2-287.2,161.9-390.9S406.2,0,552.8,0c146.6,0,287.2,58.2,390.9,161.9L887,218.5z"/>
<path style="fill-rule:evenodd;clip-rule:evenodd;fill:#00C172;" d="M841.4,433.2c-15.7-37.9-38.7-72.3-67.7-101.4l56.6-56.6
	c36.4,36.4,65.4,79.7,85.1,127.3c19.7,47.6,29.9,98.7,29.9,150.2c0,51.5-10.2,102.6-29.9,150.2c-19.7,47.6-48.6,90.9-85.1,127.3
	l-56.6-56.6c29-29,52-63.4,67.7-101.4c15.7-37.9,23.8-78.5,23.8-119.6C865.2,511.7,857.1,471.1,841.4,433.2z"/>
<path style="fill-rule:evenodd;clip-rule:evenodd;fill:#009657;" d="M672.3,841.4c37.9-15.7,72.3-38.7,101.4-67.7l56.6,56.6
	c-36.4,36.4-79.7,65.4-127.3,85.1c-47.6,19.7-98.7,29.9-150.2,29.9c-51.5,0-102.6-10.2-150.2-29.9c-47.6-19.7-90.9-48.6-127.3-85.1
	l56.6-56.6c29,29,63.5,52,101.4,67.7c37.9,15.7,78.5,23.8,119.6,23.8S634.4,857.1,672.3,841.4z"/>
<path style="fill-rule:evenodd;clip-rule:evenodd;fill:#FBFBFB;" d="M773.7,331.8c-58.6-58.6-138.1-91.5-220.9-91.5
	s-162.3,32.9-220.9,91.5c-58.6,58.6-91.5,138.1-91.5,220.9c0,82.9,32.9,162.3,91.5,220.9l-56.6,56.6c-73.6-73.6-115-173.5-115-277.6
	s41.4-203.9,115-277.6c73.6-73.6,173.5-115,277.6-115s204,41.4,277.6,115L773.7,331.8z"/>
<path style="fill-rule:evenodd;clip-rule:evenodd;fill:#00B560;" d="M693.4,494.5c-7.6-18.5-18.9-35.2-33-49.4l56.6-56.6
	c21.6,21.6,38.7,47.2,50.4,75.4c11.7,28.2,17.7,58.4,17.7,88.9c0,30.5-6,60.7-17.7,88.9c-11.7,28.2-28.8,53.8-50.4,75.4l-56.6-56.6
	c14.1-14.1,25.3-30.9,33-49.4c7.6-18.5,11.6-38.3,11.6-58.2C705,532.8,701,513,693.4,494.5z"/>
<path style="fill-rule:evenodd;clip-rule:evenodd;fill:#016243;" d="M611,693.4c18.5-7.6,35.2-18.9,49.4-33L717,717
	c-21.6,21.6-47.2,38.7-75.4,50.4c-28.2,11.7-58.4,17.7-88.9,17.7c-30.5,0-60.7-6-88.9-17.7c-28.2-11.7-53.8-28.8-75.4-50.4
	l56.6-56.6c14.1,14.1,30.9,25.3,49.4,33C513,701,532.8,705,552.8,705C572.7,705,592.5,701,611,693.4z"/>
<path style="fill-rule:evenodd;clip-rule:evenodd;fill:#FBFBFB;" d="M660.4,445.1c-28.5-28.5-67.3-44.6-107.6-44.6
	s-79.1,16-107.6,44.6c-28.5,28.5-44.6,67.3-44.6,107.6c0,40.4,16,79.1,44.6,107.6L388.5,717c-43.6-43.6-68-102.7-68-164.3
	c0-61.6,24.5-120.7,68-164.3c43.6-43.6,102.7-68,164.3-68s120.7,24.5,164.3,68L660.4,445.1z"/>
<circle style="fill:#00C172;" cx="915.3" cy="915.3" r="40.1"/>
<circle style="fill:#016243;" cx="802" cy="802" r="40.1"/>
<circle style="fill:#016243;" cx="688.7" cy="688.7" r="40.1"/>
</svg>
