<svg width="1562" height="1562" viewBox="0 0 1562 1562" fill="none" xmlns="http://www.w3.org/2000/svg">
<path fill-rule="evenodd" clip-rule="evenodd" d="M1216.72 600.02C1193 542.754 1158.23 490.721 1114.4 446.892L1170.97 390.323C1222.23 441.581 1262.89 502.433 1290.63 569.405C1318.37 636.377 1332.65 708.157 1332.65 780.646C1332.65 853.136 1318.37 924.916 1290.63 991.888C1262.89 1058.86 1222.23 1119.71 1170.97 1170.97L1114.4 1114.4C1158.23 1070.57 1193 1018.54 1216.72 961.273C1240.44 904.007 1252.65 842.63 1252.65 780.646C1252.65 718.662 1240.44 657.286 1216.72 600.02Z" fill="#016243"/>
<path fill-rule="evenodd" clip-rule="evenodd" d="M961.272 1216.72C1018.54 1193 1070.57 1158.23 1114.4 1114.4L1170.97 1170.97C1119.71 1222.23 1058.86 1262.89 991.887 1290.63C924.915 1318.37 853.135 1332.65 780.646 1332.65C708.156 1332.65 636.376 1318.37 569.405 1290.63C502.433 1262.89 441.581 1222.23 390.323 1170.97L446.891 1114.4C490.721 1158.23 542.754 1193 600.019 1216.72C657.285 1240.44 718.662 1252.65 780.646 1252.65C842.63 1252.65 904.007 1240.44 961.272 1216.72Z" fill="#00C172"/>
<path fill-rule="evenodd" clip-rule="evenodd" d="M1114.4 446.892C1025.88 358.375 905.828 308.647 780.646 308.647C655.464 308.647 535.409 358.375 446.891 446.892C358.374 535.41 308.646 655.465 308.646 780.647C308.646 905.829 358.374 1025.88 446.891 1114.4L390.323 1170.97C286.803 1067.45 228.646 927.046 228.646 780.647C228.646 634.247 286.803 493.844 390.323 390.324C493.843 286.804 634.246 228.647 780.646 228.647C927.045 228.647 1067.45 286.804 1170.97 390.324L1114.4 446.892Z" fill="#FBFBFB"/>
<path fill-rule="evenodd" clip-rule="evenodd" d="M1068.9 661.249C1053.22 623.396 1030.24 589.001 1001.26 560.029L1057.83 503.461C1094.23 539.861 1123.11 583.075 1142.81 630.635C1162.51 678.194 1172.65 729.168 1172.65 780.646C1172.65 832.125 1162.51 883.099 1142.81 930.658C1123.11 978.218 1094.23 1021.43 1057.83 1057.83L1001.26 1001.26C1030.24 972.292 1053.22 937.897 1068.9 900.044C1084.58 862.19 1092.65 821.619 1092.65 780.646C1092.65 739.674 1084.58 699.103 1068.9 661.249Z" fill="#00C172"/>
<path fill-rule="evenodd" clip-rule="evenodd" d="M900.043 1068.9C937.897 1053.22 972.291 1030.24 1001.26 1001.26L1057.83 1057.83C1021.43 1094.23 978.218 1123.11 930.658 1142.81C883.098 1162.51 832.124 1172.65 780.646 1172.65C729.168 1172.65 678.194 1162.51 630.634 1142.81C583.075 1123.11 539.861 1094.23 503.46 1057.83L560.029 1001.26C589.001 1030.24 623.395 1053.22 661.249 1068.9C699.102 1084.58 739.674 1092.65 780.646 1092.65C821.618 1092.65 862.19 1084.58 900.043 1068.9Z" fill="#009657"/>
<path fill-rule="evenodd" clip-rule="evenodd" d="M1001.26 560.029C942.752 501.517 863.394 468.646 780.646 468.646C697.898 468.646 618.54 501.517 560.029 560.029C501.517 618.54 468.646 697.899 468.646 780.646C468.646 863.394 501.517 942.752 560.029 1001.26L503.46 1057.83C429.946 984.318 388.646 884.611 388.646 780.646C388.646 676.681 429.946 576.975 503.46 503.46C576.974 429.946 676.681 388.646 780.646 388.646C884.611 388.646 984.318 429.946 1057.83 503.46L1001.26 560.029Z" fill="#FBFBFB"/>
<path fill-rule="evenodd" clip-rule="evenodd" d="M921.075 722.479C913.437 704.037 902.24 687.281 888.126 673.166L944.695 616.598C966.238 638.141 983.327 663.716 994.986 691.864C1006.64 720.011 1012.65 750.18 1012.65 780.646C1012.65 811.113 1006.64 841.281 994.986 869.429C983.327 897.577 966.238 923.152 944.695 944.695L888.126 888.127C902.241 874.012 913.437 857.256 921.075 838.814C928.714 820.373 932.646 800.607 932.646 780.646C932.646 760.686 928.714 740.92 921.075 722.479Z" fill="#00B560"/>
<path fill-rule="evenodd" clip-rule="evenodd" d="M838.814 921.076C857.255 913.437 874.011 902.241 888.126 888.127L944.695 944.695C923.151 966.238 897.576 983.327 869.428 994.987C841.281 1006.65 811.112 1012.65 780.646 1012.65C750.179 1012.65 720.011 1006.65 691.863 994.987C663.716 983.327 638.14 966.238 616.597 944.695L673.166 888.127C687.28 902.241 704.036 913.437 722.478 921.076C740.919 928.715 760.685 932.646 780.646 932.646C800.607 932.646 820.372 928.715 838.814 921.076Z" fill="#016243"/>
<path fill-rule="evenodd" clip-rule="evenodd" d="M888.126 673.166C859.62 644.661 820.959 628.646 780.646 628.646C740.333 628.646 701.671 644.661 673.166 673.166C644.66 701.672 628.646 740.333 628.646 780.646C628.646 820.959 644.66 859.621 673.166 888.127L616.597 944.695C573.089 901.187 548.646 842.177 548.646 780.646C548.646 719.116 573.089 660.106 616.597 616.598C660.105 573.089 719.116 548.646 780.646 548.646C842.176 548.646 901.186 573.089 944.695 616.598L888.126 673.166Z" fill="#FBFBFB"/>
<circle cx="1142.69" cy="1142.69" r="40" transform="rotate(-45 1142.69 1142.69)" fill="#00C172"/>
<circle cx="1029.55" cy="1029.55" r="40" transform="rotate(-45 1029.55 1029.55)" fill="#016243"/>
<circle cx="916.41" cy="916.411" r="40" transform="rotate(-45 916.41 916.411)" fill="#016243"/>
</svg>
