<svg width="400" height="280" viewBox="0 0 400 280" fill="none" xmlns="http://www.w3.org/2000/svg">
<path d="M200.001 120C244.184 120 280.001 155.817 280.001 200C280.001 211.046 271.047 220 260.001 220C248.955 220 240.001 211.046 240.001 200C240.001 177.909 222.092 160 200.001 160C177.91 160 160.001 177.909 160.001 200C160.001 211.046 151.047 220 140.001 220C128.955 220 120.001 211.046 120.001 200C120.001 155.817 155.818 120 200.001 120Z" fill="#00C172"/>
<path d="M200.001 60C277.321 60 340.001 122.68 340.001 200C340.001 211.046 331.047 220 320.001 220C308.955 220 300.001 211.046 300.001 200C300.001 144.772 255.229 100 200.001 100C144.773 100 100.001 144.772 100.001 200C100.001 211.046 91.0467 220 80.001 220C68.9553 220 60.001 211.046 60.001 200C60.001 122.68 122.681 60 200.001 60Z" fill="#00C172"/>
<path d="M200.001 0C310.458 9.65645e-06 400.001 89.5431 400.001 200C400.001 211.046 391.047 220 380.001 220C368.955 220 360.001 211.046 360.001 200C360.001 111.634 288.367 40 200.001 40C111.635 40 40.001 111.634 40.001 200H0.000976563C0.000986219 89.543 89.5441 -9.65645e-06 200.001 0Z" fill="#009657"/>
<path d="M40.001 200C40.001 211.046 31.0467 220 20.001 220C8.95526 220 0.00097094 211.046 0.000976563 200H40.001Z" fill="#009657"/>
<rect x="180.001" y="180" width="40" height="100" rx="20" fill="#016243"/>
</svg>
