<svg width="386" height="304" viewBox="0 0 386 304" fill="none" xmlns="http://www.w3.org/2000/svg">
<circle cx="234" cy="152" r="152" fill="#00C172"/>
<ellipse cx="39.5" cy="39" rx="39.5" ry="39" fill="#016243"/>
<mask id="mask0_503:4350" style="mask-type:alpha" maskUnits="userSpaceOnUse" x="82" y="0" width="304" height="304">
<circle cx="234" cy="152" r="152" fill="#00C172"/>
</mask>
<g mask="url(#mask0_503:4350)">
<path d="M141.197 161.656C112.523 161.656 108.515 231.036 84.4665 231.036V291.999C84.4665 298.626 89.8391 303.999 96.4665 303.999H494.86C501.487 303.999 506.86 298.626 506.86 291.999V140.819C464.004 140.819 451.363 253.586 403.574 253.586C355.785 253.586 351.16 109.76 306.454 109.76C261.748 109.76 258.357 230.356 215.501 230.356C165.554 230.356 169.87 161.656 141.197 161.656Z" fill="url(#paint0_linear_503:4350)"/>
<path d="M208.192 180.933C159.134 180.933 143.398 231.037 84.4665 231.037V292C84.4665 298.627 89.8391 304 96.4665 304H494.86C501.487 304 506.86 298.627 506.86 292V161.032C435.587 161.032 409.669 231.346 339.63 231.346C265.889 231.346 248.302 180.933 208.192 180.933Z" fill="url(#paint1_linear_503:4350)"/>
</g>
<ellipse cx="92" cy="212.5" rx="92" ry="91.5" fill="#009657"/>
<defs>
<linearGradient id="paint0_linear_503:4350" x1="295.663" y1="109.76" x2="295.663" y2="303.999" gradientUnits="userSpaceOnUse">
<stop stop-color="#009657"/>
<stop offset="1" stop-color="#009657" stop-opacity="0"/>
</linearGradient>
<linearGradient id="paint1_linear_503:4350" x1="295.663" y1="109.761" x2="295.663" y2="304" gradientUnits="userSpaceOnUse">
<stop stop-color="#016243"/>
<stop offset="1" stop-color="#00B560" stop-opacity="0"/>
</linearGradient>
</defs>
</svg>
