<svg width="120" height="120" viewBox="0 0 120 120" fill="none" xmlns="http://www.w3.org/2000/svg">
<g clip-path="url(#clip0_51:5)">
<path fill-rule="evenodd" clip-rule="evenodd" d="M72.4106 61.0989C72.4106 67.0976 67.6124 71.9605 61.6935 71.9605H10.7171C4.79812 71.9605 -0.00012207 67.0976 -0.00012207 61.0989C-0.00012207 55.1002 4.79812 50.2373 10.7171 50.2373H61.6935C67.6124 50.2373 72.4106 55.1002 72.4106 61.0989Z" fill="#006045"/>
<path fill-rule="evenodd" clip-rule="evenodd" d="M114.253 67.5754C110.057 71.771 103.255 71.771 99.0596 67.5754L54.2742 22.79C50.0787 18.5945 50.0787 11.7922 54.2742 7.59672C58.4697 3.40119 65.272 3.4012 69.4675 7.59672L114.253 52.3821C118.448 56.5776 118.448 63.3799 114.253 67.5754Z" fill="#01BC78"/>
<path fill-rule="evenodd" clip-rule="evenodd" d="M54.3164 112.404C50.1209 108.208 50.1209 101.406 54.3164 97.2102L99.1018 52.4248C103.297 48.2293 110.1 48.2293 114.295 52.4248C118.491 56.6204 118.491 63.4227 114.295 67.6182L69.5098 112.404C65.3142 116.599 58.5119 116.599 54.3164 112.404Z" fill="#01BC78"/>
</g>
<defs>
<clipPath id="clip0_51:5">
<rect width="120" height="120" fill="white"/>
</clipPath>
</defs>
</svg>
