<svg width="57" height="42" viewBox="0 0 57 42" fill="none" xmlns="http://www.w3.org/2000/svg">
<path fill-rule="evenodd" clip-rule="evenodd" d="M52.8612 3.64179C54.871 5.65282 54.8411 8.94324 52.7945 10.9911L25.7165 38.0848C23.6699 40.1328 20.3815 40.1626 18.3717 38.1516C16.3619 36.1406 16.3918 32.8502 18.4385 30.8023L45.5164 3.70854C47.563 1.66064 50.8514 1.63076 52.8612 3.64179Z" fill="#006045"/>
<path fill-rule="evenodd" clip-rule="evenodd" d="M25.7291 38.2547C23.6619 40.3232 20.327 40.3399 18.2804 38.292L4.20644 24.2084C2.1598 22.1605 2.17648 18.8235 4.2437 16.755C6.31091 14.6865 9.64584 14.6698 11.6925 16.7177L25.7664 30.8014C27.813 32.8493 27.7964 36.1862 25.7291 38.2547Z" fill="#01BC78"/>
</svg>
