<svg width="18" height="19" viewBox="0 0 18 19" fill="none" xmlns="http://www.w3.org/2000/svg">
<path fill-rule="evenodd" clip-rule="evenodd" d="M3.9375 0.00335694C3.48995 0.00335694 3.06072 0.181147 2.74426 0.497614C2.42779 0.814082 2.25 1.2433 2.25 1.69086V16.3159C2.25 16.7634 2.42779 17.1926 2.74426 17.5091C3.06072 17.8256 3.48995 18.0034 3.9375 18.0034H14.0625C14.5101 18.0034 14.9393 17.8256 15.2557 17.5091C15.5722 17.1926 15.75 16.7634 15.75 16.3159V6.69711C15.75 6.18001 15.6482 5.66798 15.4504 5.19023C15.2525 4.71249 14.9625 4.27839 14.5969 3.91273L11.8406 1.15648C11.475 0.79086 11.0409 0.500842 10.5631 0.302989C10.0854 0.105135 9.57334 0.00331963 9.05625 0.00335694H3.9375ZM7.875 2.81586C7.875 2.66667 7.93426 2.5236 8.03975 2.41811C8.14524 2.31262 8.28832 2.25336 8.4375 2.25336H9.05625C9.50365 2.25375 9.93259 2.4318 10.2487 2.74836L13.005 5.50348C13.3216 5.81965 13.4996 6.24858 13.5 6.69598V7.31473C13.5 7.46392 13.4407 7.60699 13.3352 7.71248C13.2298 7.81797 13.0867 7.87723 12.9375 7.87723H9C8.70163 7.87723 8.41548 7.75871 8.20451 7.54773C7.99353 7.33675 7.875 7.0506 7.875 6.75223V2.81473V2.81586Z" fill="#1A1A1A"/>
</svg>
