<svg width="18" height="19" viewBox="0 0 18 19" fill="none" xmlns="http://www.w3.org/2000/svg">
<path fill-rule="evenodd" clip-rule="evenodd" d="M9.00012 3.22977C5.49524 3.22977 2.65397 6.07104 2.65397 9.57593C2.65397 13.0808 5.49524 15.9221 9.00012 15.9221C12.505 15.9221 15.3463 13.0808 15.3463 9.57593C15.3463 6.07104 12.505 3.22977 9.00012 3.22977ZM1.50012 9.57593C1.50012 5.43379 4.85799 2.07593 9.00012 2.07593C13.1423 2.07593 16.5001 5.43379 16.5001 9.57593C16.5001 13.7181 13.1423 17.0759 9.00012 17.0759C4.85799 17.0759 1.50012 13.7181 1.50012 9.57593Z" fill="white" fill-opacity="0.6"/>
<path fill-rule="evenodd" clip-rule="evenodd" d="M9.00012 12.8452C9.31875 12.8452 9.57705 12.5869 9.57705 12.2682V9.19131C9.57705 8.87269 9.31875 8.61439 9.00012 8.61439C8.6815 8.61439 8.4232 8.87269 8.4232 9.19131V12.2682C8.4232 12.5869 8.6815 12.8452 9.00012 12.8452Z" fill="white" fill-opacity="0.6"/>
<path d="M9.76935 6.88362C9.76935 6.45879 9.42496 6.11439 9.00012 6.11439C8.57529 6.11439 8.23089 6.45879 8.23089 6.88362C8.23089 7.30845 8.57529 7.65285 9.00012 7.65285C9.42496 7.65285 9.76935 7.30845 9.76935 6.88362Z" fill="white" fill-opacity="0.6"/>
</svg>
