<svg width="24" height="20" viewBox="0 0 24 20" fill="none" xmlns="http://www.w3.org/2000/svg">
<path d="M13.6537 7.84814C14.8937 7.84814 15.8989 8.86826 15.8989 10.1266C15.8989 11.385 14.8937 12.4051 13.6537 12.4051L2.24543 12.4051C1.00542 12.4051 0.000193441 11.385 0.000193496 10.1266C0.000193551 8.86825 1.00542 7.84814 2.24543 7.84814L13.6537 7.84814Z" fill="#00C172"/>
<path fill-rule="evenodd" clip-rule="evenodd" d="M23.4073 8.64532C24.1976 9.43541 24.1976 10.7164 23.4073 11.5065L15.505 19.4074C14.7148 20.1975 13.4335 20.1975 12.6433 19.4074C11.8531 18.6173 11.8531 17.3363 12.6433 16.5462L19.1148 10.0759L12.6433 3.6056C11.8531 2.8155 11.8531 1.53451 12.6433 0.744423C13.4335 -0.0456677 14.7148 -0.0456677 15.505 0.744423L23.4073 8.64532Z" fill="#00C172"/>
</svg>
