<svg width="33" height="33" viewBox="0 0 33 33" fill="none" xmlns="http://www.w3.org/2000/svg">
<path d="M16.579 13.9318C17.5425 12.9721 19.1161 12.9836 20.0939 13.9575C21.0716 14.9314 21.0832 16.4989 20.1197 17.4586L11.2558 26.2877C10.2923 27.2474 8.71865 27.2359 7.74093 26.262C6.7632 25.2881 6.75164 23.7206 7.7151 22.761L16.579 13.9318Z" fill="#00C172"/>
<path fill-rule="evenodd" clip-rule="evenodd" d="M24.7769 7C26.0048 6.99989 27.0001 7.99128 27 9.21434L26.9989 21.4449C26.9988 22.6679 26.0033 23.6595 24.7754 23.6596C23.5475 23.6597 22.5522 22.6683 22.5524 21.4453L22.5533 11.4293L12.4978 11.4302C11.2699 11.4303 10.2746 10.4389 10.2747 9.21584C10.2748 7.99279 11.2703 7.00122 12.4982 7.0011L24.7769 7Z" fill="#00C172"/>
</svg>
