<svg width="50" height="50" viewBox="0 0 50 50" fill="none" xmlns="http://www.w3.org/2000/svg">
<path d="M0 50C2.87013e-07 46.7169 0.646645 43.466 1.90301 40.4329C3.15938 37.3998 5.00087 34.6438 7.32233 32.3223C9.6438 30.0009 12.3998 28.1594 15.4329 26.903C18.4661 25.6466 21.717 25 25 25L25 50L0 50Z" fill="#00C172"/>
<path d="M25 25C28.283 25 31.5339 25.6466 34.5671 26.903C37.6002 28.1594 40.3562 30.0009 42.6777 32.3223C44.9991 34.6438 46.8406 37.3998 48.097 40.4329C49.3534 43.4661 50 46.7169 50 50H25L25 25Z" fill="#009657"/>
<ellipse cx="25" cy="12.5" rx="12.5" ry="12.5" transform="rotate(-180 25 12.5)" fill="#016243"/>
</svg>
