<svg width="120" height="120" viewBox="0 0 120 120" fill="none" xmlns="http://www.w3.org/2000/svg">
<path fill-rule="evenodd" clip-rule="evenodd" d="M60 22.2581C39.1557 22.2581 22.2581 39.1557 22.2581 60C22.2581 80.8443 39.1557 97.7419 60 97.7419C80.8443 97.7419 97.7419 80.8443 97.7419 60C97.7419 39.1557 80.8443 22.2581 60 22.2581ZM0 60C0 26.8629 26.8629 0 60 0C93.1371 0 120 26.8629 120 60C120 93.1371 93.1371 120 60 120C26.8629 120 0 93.1371 0 60Z" fill="#01BC78"/>
<path fill-rule="evenodd" clip-rule="evenodd" d="M48.871 11.129C48.871 4.98264 53.8536 0 60 0C93.1371 0 120 26.8629 120 60C120 93.1371 93.1371 120 60 120C26.8629 120 0 93.1371 0 60C0 53.8536 4.98264 48.871 11.129 48.871C17.2754 48.871 22.2581 53.8536 22.2581 60C22.2581 80.8443 39.1557 97.7419 60 97.7419C80.8443 97.7419 97.7419 80.8443 97.7419 60C97.7419 39.1557 80.8443 22.2581 60 22.2581C53.8536 22.2581 48.871 17.2754 48.871 11.129Z" fill="#00935C"/>
<path fill-rule="evenodd" clip-rule="evenodd" d="M48.75 11.129C48.75 4.98264 53.7411 0 59.898 0C93.0914 0 120 26.8629 120 60C120 93.1371 93.0914 120 59.898 120C53.7411 120 48.75 115.017 48.75 108.871C48.75 102.725 53.7411 97.7419 59.898 97.7419C80.7777 97.7419 97.7041 80.8443 97.7041 60C97.7041 39.1557 80.7777 22.2581 59.898 22.2581C53.7411 22.2581 48.75 17.2754 48.75 11.129Z" fill="#006045"/>
</svg>
