<svg width="120" height="120" viewBox="0 0 120 120" fill="none" xmlns="http://www.w3.org/2000/svg">
<path fill-rule="evenodd" clip-rule="evenodd" d="M60.312 0C66.3526 0 71.2495 4.98666 71.2495 11.138V108.862C71.2495 115.013 66.3526 120 60.312 120C54.2714 120 49.3745 115.013 49.3745 108.862V11.138C49.3745 4.98666 54.2714 0 60.312 0Z" fill="#006045"/>
<path fill-rule="evenodd" clip-rule="evenodd" d="M120 60C120 66.2132 115.013 71.25 108.862 71.25L11.138 71.25C4.98665 71.25 -7.63341e-07 66.2132 -4.91753e-07 60C-2.20165e-07 53.7868 4.98665 48.75 11.138 48.75L108.862 48.75C115.013 48.75 120 53.7868 120 60Z" fill="#01BC78"/>
</svg>
