<svg width="167" height="127" viewBox="0 0 167 127" fill="none" xmlns="http://www.w3.org/2000/svg">
<path fill-rule="evenodd" clip-rule="evenodd" d="M156.148 10.9502C162.141 16.997 162.052 26.8906 155.949 33.0483L75.1985 114.514C69.0952 120.672 59.2887 120.762 53.2953 114.715C47.3018 108.668 47.3908 98.7743 53.4942 92.6166L134.245 11.1509C140.348 4.99324 150.154 4.90338 156.148 10.9502Z" fill="#006045"/>
<path fill-rule="evenodd" clip-rule="evenodd" d="M75.2363 115.024C69.0716 121.244 59.1264 121.294 53.023 115.136L11.0525 72.7895C4.94918 66.6319 4.99894 56.5982 11.1637 50.3786C17.3284 44.1591 27.2736 44.1089 33.377 50.2665L75.3474 92.6133C81.4508 98.7709 81.4011 108.805 75.2363 115.024Z" fill="#01BC78"/>
</svg>
