<svg width="80" height="81" viewBox="0 0 80 81" fill="none" xmlns="http://www.w3.org/2000/svg">
<path d="M38.889 3.7233C39.5615 3.27404 40.4384 3.27404 41.111 3.7233L44.535 6.01062C45.8578 6.89432 47.4775 7.21649 49.0378 6.90629L53.0765 6.10339C53.8697 5.94569 54.6799 6.28126 55.1293 6.95369L57.4173 10.3772C58.3013 11.6999 59.6744 12.6173 61.2347 12.9279L65.2732 13.7316C66.0664 13.8895 66.6864 14.5095 66.8443 15.3028L67.6481 19.3413C67.9586 20.9015 68.8761 22.2746 70.1987 23.1586L73.6222 25.4466C74.2947 25.896 74.6302 26.7062 74.4725 27.4994L73.6696 31.5381C73.3594 33.0984 73.6816 34.7181 74.5653 36.041L76.8526 39.465C77.3019 40.1375 77.3019 41.0144 76.8526 41.6869L74.5653 45.1109C73.6816 46.4338 73.3594 48.0534 73.6696 49.6137L74.4725 53.6524C74.6302 54.4457 74.2947 55.2558 73.6222 55.7052L70.1987 57.9933C68.8761 58.8772 67.9586 60.2503 67.6481 61.8106L66.8443 65.8491C66.6864 66.6423 66.0664 67.2624 65.2732 67.4202L61.2346 68.224C59.6744 68.5345 58.3013 69.452 57.4173 70.7746L55.1293 74.1982C54.6799 74.8706 53.8697 75.2062 53.0765 75.0485L49.0378 74.2456C47.4775 73.9354 45.8578 74.2575 44.535 75.1412L41.111 77.4286C40.4385 77.8778 39.5616 77.8778 38.889 77.4286L35.465 75.1412C34.1422 74.2575 32.5225 73.9354 30.9622 74.2456L26.9235 75.0485C26.1303 75.2062 25.3201 74.8706 24.8707 74.1982L22.5827 70.7746C21.6987 69.452 20.3256 68.5345 18.7654 68.224L14.7268 67.4202C13.9336 67.2624 13.3135 66.6423 13.1557 65.8491L12.3519 61.8106C12.0414 60.2503 11.1239 58.8772 9.80128 57.9933L6.37776 55.7052C5.70533 55.2558 5.36976 54.4457 5.52746 53.6524L6.33037 49.6137C6.64057 48.0534 6.3184 46.4337 5.4347 45.1109L3.14737 41.6869L1.48803 42.7954L3.14737 41.6869C2.69811 41.0144 2.69811 40.1375 3.14737 39.465L5.4347 36.041C6.3184 34.7181 6.64057 33.0985 6.33037 31.5381L5.52746 27.4994C5.36976 26.7062 5.70533 25.896 6.37776 25.4466L9.80128 23.1586C11.1239 22.2746 12.0414 20.9015 12.3519 19.3413L13.1557 15.3028C13.3135 14.5095 13.9336 13.8895 14.7268 13.7316L18.7654 12.9279C20.3256 12.6173 21.6987 11.6999 22.5827 10.3772L24.8707 6.95369C25.3201 6.28126 26.1303 5.94569 26.9235 6.10339L30.9622 6.90629C32.5225 7.21649 34.1422 6.89433 35.465 6.01062L38.889 3.7233L37.7805 2.06395L38.889 3.7233Z" fill="#009657" stroke="#009657" stroke-width="4"/>
</svg>
