<svg width="400" height="330" viewBox="0 0 400 330" fill="none" xmlns="http://www.w3.org/2000/svg">
<rect x="176.001" y="240" width="40" height="90" rx="20" fill="#016243"/>
<path d="M256.001 180C267.047 180 276.001 188.954 276.001 200C276.001 211.046 267.047 220 256.001 220L136.001 220C124.955 220 116.001 211.046 116.001 200C116.001 188.954 124.955 180 136.001 180L256.001 180Z" fill="#00C172"/>
<path d="M346.001 60C357.047 60 366.001 68.9543 366.001 80C366.001 91.0457 357.047 100 346.001 100L86.001 100C74.9553 100 66.001 91.0457 66.001 80C66.001 68.9543 74.9553 60 86.001 60L346.001 60Z" fill="#00C172"/>
<path d="M248.001 -8.74228e-07C259.047 -3.91405e-07 268.001 8.95431 268.001 20C268.001 31.0457 259.047 40 248.001 40L148.001 40C136.955 40 128.001 31.0457 128.001 20C128.001 8.9543 136.955 -5.72819e-06 148.001 -5.24537e-06L248.001 -8.74228e-07Z" fill="#00C172"/>
<path d="M380.001 120C391.047 120 400.001 128.954 400.001 140C400.001 151.046 391.047 160 380.001 160L20.001 160C8.95529 160 0.000975205 151.046 0.000975688 140C0.000976171 128.954 8.95529 120 20.001 120L380.001 120Z" fill="#009657"/>
</svg>
