<svg width="400" height="400" viewBox="0 0 400 400" fill="none" xmlns="http://www.w3.org/2000/svg">
<path d="M200 0C310.457 9.65645e-06 400 89.5431 400 200C400 211.046 391.046 220 380 220C368.954 220 360 211.046 360 200C360 111.634 288.366 40 200 40C111.634 40 40 111.634 40 200H0C9.65645e-06 89.543 89.5431 -9.65645e-06 200 0Z" fill="#009657"/>
<path d="M40 200C40 211.046 31.0457 220 20 220C8.95429 220 -5.62269e-06 211.046 0 200H40Z" fill="#009657"/>
<rect x="180" y="180" width="40" height="220" rx="20" fill="#016243"/>
<path d="M340 200C340 122.68 277.32 60 200 60C122.68 60 60 122.68 60 200V235C60 246.046 68.9543 255 80 255C91.0457 255 100 246.046 100 235L100 200C100 144.772 144.772 100 200 100C255.228 100 300 144.772 300 200V235C300 246.046 308.954 255 320 255C331.046 255 340 246.046 340 235V200Z" fill="#00C172"/>
<path d="M280 200C280 155.817 244.183 120 200 120C155.817 120 120 155.817 120 200V280C120 291.046 128.954 300 140 300C151.046 300 160 291.046 160 280V200C160 177.909 177.909 160 200 160C222.091 160 240 177.909 240 200V280C240 291.046 248.954 300 260 300C271.046 300 280 291.046 280 280V200Z" fill="#00C172"/>
</svg>
