<svg width="280" height="400" viewBox="0 0 280 400" fill="none" xmlns="http://www.w3.org/2000/svg">
<rect x="120" width="40" height="175" rx="20" fill="#00C172"/>
<rect x="120" y="315" width="40" height="85" rx="20" fill="#016243"/>
<path d="M60 93C60 81.9543 68.9543 73 80 73C91.0457 73 100 81.9543 100 93V155C100 177.091 117.909 195 140 195C162.091 195 180 177.091 180 155V93C180 81.9543 188.954 73 200 73C211.046 73 220 81.9543 220 93V155C220 199.183 184.183 235 140 235C95.8172 235 60 199.183 60 155V93Z" fill="#009657"/>
<path d="M0 155C1.97807e-06 152.374 0.517318 149.773 1.52241 147.346C2.52751 144.92 4.0007 142.715 5.85787 140.858C7.71504 139.001 9.91982 137.528 12.3463 136.522C14.7728 135.517 17.3736 135 20 135C22.6264 135 25.2272 135.517 27.6537 136.522C30.0802 137.528 32.285 139.001 34.1421 140.858C35.9993 142.715 37.4725 144.92 38.4776 147.346C39.4827 149.773 40 152.374 40 155C40 210.228 84.7715 255 140 255C195.228 255 240 210.228 240 155C240 152.374 240.517 149.773 241.522 147.346C242.528 144.92 244.001 142.715 245.858 140.858C247.715 139.001 249.92 137.528 252.346 136.522C254.773 135.517 257.374 135 260 135C262.626 135 265.227 135.517 267.654 136.522C270.08 137.528 272.285 139.001 274.142 140.858C275.999 142.715 277.473 144.92 278.478 147.346C279.483 149.773 280 152.374 280 155C280 232.32 217.32 295 140 295C62.6801 295 0 232.32 0 155Z" fill="#00C172"/>
</svg>
