<svg width="280" height="400" viewBox="0 0 280 400" fill="none" xmlns="http://www.w3.org/2000/svg">
<rect x="120" width="40" height="115" rx="20" fill="#009657"/>
<rect x="120" y="315" width="40" height="85" rx="20" fill="#016243"/>
<path d="M60 215C60 212.374 60.5173 209.773 61.5224 207.346C62.5275 204.92 64.0007 202.715 65.8579 200.858C67.715 199.001 69.9198 197.528 72.3463 196.522C74.7728 195.517 77.3736 195 80 195C82.6264 195 85.2272 195.517 87.6537 196.522C90.0802 197.528 92.285 199.001 94.1421 200.858C95.9993 202.715 97.4725 204.92 98.4776 207.346C99.4827 209.773 100 212.374 100 215L80 215L60 215Z" fill="#00C172"/>
<path d="M120 155C120 152.374 120.517 149.773 121.522 147.346C122.528 144.92 124.001 142.715 125.858 140.858C127.715 139.001 129.92 137.528 132.346 136.522C134.773 135.517 137.374 135 140 135C142.626 135 145.227 135.517 147.654 136.522C150.08 137.528 152.285 139.001 154.142 140.858C155.999 142.715 157.472 144.92 158.478 147.346C159.483 149.773 160 152.374 160 155L140 155L120 155Z" fill="#00C172"/>
<path d="M180 215C180 212.374 180.517 209.773 181.522 207.346C182.528 204.92 184.001 202.715 185.858 200.858C187.715 199.001 189.92 197.528 192.346 196.522C194.773 195.517 197.374 195 200 195C202.626 195 205.227 195.517 207.654 196.522C210.08 197.528 212.285 199.001 214.142 200.858C215.999 202.715 217.472 204.92 218.478 207.346C219.483 209.773 220 212.374 220 215L200 215L180 215Z" fill="#00C172"/>
<path fill-rule="evenodd" clip-rule="evenodd" d="M61.5224 87.3463C60.5173 89.7728 60 92.3736 60 95C60.0003 130.989 83.7655 161.428 116.459 171.479C110.18 185.351 96.2168 195.001 80 195.001C57.9086 195.001 40 177.092 40 155.001C40 152.374 39.4827 149.773 38.4776 147.346C37.4725 144.92 35.9993 142.715 34.1421 140.858C32.285 139.001 30.0802 137.528 27.6537 136.522C25.2272 135.517 22.6264 135 20 135C17.3736 135 14.7728 135.517 12.3463 136.522C9.91982 137.528 7.71504 139.001 5.85787 140.858C4.0007 142.715 2.52751 144.92 1.52241 147.346C0.517318 149.773 1.97807e-06 152.374 0 155C-6.64482e-06 193.003 26.4988 224.818 62.0273 232.974C70.1839 268.501 101.997 294.999 140 294.999C178.002 294.999 209.816 268.501 217.972 232.973C253.501 224.818 280.001 193.004 280.001 155L240.001 155C240.001 177.091 222.092 195 200.001 195C183.784 195 169.821 185.35 163.542 171.479C196.234 161.427 219.999 130.989 219.999 95C219.999 92.3736 219.483 89.7728 218.478 87.3463C217.473 84.9198 215.999 82.715 214.142 80.8579C212.285 79.0007 210.08 77.5275 207.654 76.5224C205.227 75.5173 202.626 75 200 75C197.374 75 194.773 75.5173 192.346 76.5224C189.92 77.5275 187.715 79.0007 185.858 80.8579C184.001 82.715 182.527 84.9198 181.522 87.3463C180.517 89.7728 180 92.3736 180 95C180 117.091 162.091 134.999 140 134.999C117.909 134.999 100 117.091 100 95C100 92.3736 99.4827 89.7728 98.4776 87.3463C97.4725 84.9198 95.9993 82.715 94.1421 80.8579C92.285 79.0007 90.0802 77.5275 87.6537 76.5224C85.2272 75.5173 82.6264 75 80 75C77.3736 75 74.7729 75.5173 72.3463 76.5224C69.9198 77.5275 67.715 79.0007 65.8579 80.8579C64.0007 82.715 62.5275 84.9198 61.5224 87.3463ZM140 254.999C123.784 254.999 109.822 245.35 103.542 231.481C117.805 227.095 130.368 218.83 140.001 207.917C149.633 218.829 162.195 227.094 176.457 231.479C170.178 245.349 156.216 254.999 140 254.999Z" fill="#00C172"/>
<path d="M240 155C240 152.374 240.517 149.773 241.522 147.346C242.527 144.92 244.001 142.715 245.858 140.858C247.715 139.001 249.92 137.528 252.346 136.522C254.773 135.517 257.374 135 260 135C262.626 135 265.227 135.517 267.654 136.522C270.08 137.528 272.285 139.001 274.142 140.858C275.999 142.715 277.473 144.92 278.478 147.346C279.483 149.773 280 152.374 280 155H240Z" fill="#00C172"/>
</svg>
