<svg width="340" height="400" viewBox="0 0 340 400" fill="none" xmlns="http://www.w3.org/2000/svg">
<rect x="60" y="60" width="40" height="175" rx="20" fill="#00C172"/>
<rect x="240" y="100" width="40" height="135" rx="20" fill="#00C172"/>
<rect x="60" y="315" width="40" height="85" rx="20" fill="#016243"/>
<rect x="240" y="315" width="40" height="85" rx="20" fill="#016243"/>
<path fill-rule="evenodd" clip-rule="evenodd" d="M80 0C124.183 3.86258e-06 160 35.8172 160 80V215C160 259.183 124.183 295 80 295C35.8172 295 9.53674e-06 259.183 0 215L9.53674e-06 80C1.33993e-05 35.8172 35.8172 -3.86258e-06 80 0ZM40 80V215C40 237.091 57.9086 255 80 255C102.091 255 120 237.091 120 215L120 80C120 57.9086 102.091 40 80 40C57.9086 40 40 57.9086 40 80Z" fill="#009657"/>
<path fill-rule="evenodd" clip-rule="evenodd" d="M260 40C304.183 40 340 75.8172 340 120V215C340 259.183 304.183 295 260 295C215.817 295 180 259.183 180 215V120C180 75.8172 215.817 40 260 40ZM220 120V215C220 237.091 237.909 255 260 255C282.091 255 300 237.091 300 215V120C300 97.9086 282.091 80 260 80C237.909 80 220 97.9086 220 120Z" fill="#009657"/>
</svg>
