<svg width="387" height="526" viewBox="0 0 387 526" fill="none" xmlns="http://www.w3.org/2000/svg">
<mask id="mask0_370:1850" style="mask-type:alpha" maskUnits="userSpaceOnUse" x="0" y="0" width="387" height="526">
<rect width="387" height="526" rx="12" fill="white"/>
</mask>
<g mask="url(#mask0_370:1850)">
<rect width="387" height="526" rx="12" fill="white"/>
<path d="M298 470.048C236.56 470.048 209 526 104 526H633V461C543.738 461 534.216 502.5 446.5 502.5C354.147 502.5 348.234 470.048 298 470.048Z" fill="url(#paint0_linear_370:1850)"/>
<path d="M368 569C355.54 569 343.359 565.305 332.999 558.383C322.639 551.46 314.564 541.621 309.796 530.109C305.027 518.597 303.78 505.93 306.211 493.709C308.641 481.489 314.642 470.263 323.452 461.452C332.263 452.642 343.489 446.641 355.709 444.211C367.93 441.78 380.597 443.027 392.109 447.796C403.621 452.564 413.46 460.639 420.383 470.999C427.305 481.359 431 493.54 431 506L405.8 506C405.8 498.524 403.583 491.216 399.43 484.999C395.276 478.783 389.372 473.938 382.465 471.077C375.558 468.216 367.958 467.468 360.626 468.926C353.293 470.385 346.558 473.985 341.271 479.271C335.985 484.558 332.385 491.293 330.926 498.626C329.468 505.958 330.216 513.558 333.077 520.465C335.938 527.372 340.783 533.276 346.999 537.43C353.216 541.583 360.524 543.8 368 543.8L368 569Z" fill="url(#paint1_linear_370:1850)"/>
</g>
<defs>
<linearGradient id="paint0_linear_370:1850" x1="368.5" y1="437.69" x2="368.5" y2="526" gradientUnits="userSpaceOnUse">
<stop stop-color="#00C172"/>
<stop offset="1" stop-color="#00C172" stop-opacity="0.2"/>
</linearGradient>
<linearGradient id="paint1_linear_370:1850" x1="431" y1="506" x2="291.5" y2="506" gradientUnits="userSpaceOnUse">
<stop stop-color="#00C172"/>
<stop offset="1" stop-color="#00C172" stop-opacity="0"/>
</linearGradient>
</defs>
</svg>
