<svg width="57" height="41" viewBox="0 0 57 41" fill="none" xmlns="http://www.w3.org/2000/svg">
<path d="M36.6401 -2.79666e-07C40.1736 -1.25211e-07 43.0381 2.65183 43.0381 5.92304C43.0381 9.19424 40.1736 11.8461 36.6401 11.8461L6.89794 11.8461C3.36441 11.8461 0.499923 9.19424 0.499923 5.92303C0.499924 2.65183 3.36441 -1.73419e-06 6.89794 -1.57974e-06L36.6401 -2.79666e-07Z" fill="#00C172"/>
<path d="M50.5307 14.4059C53.8275 14.4059 56.5 17.118 56.5 20.4636C56.5 23.8091 53.8275 26.5212 50.5307 26.5212L20.2003 26.5212C16.9036 26.5212 14.2311 23.8091 14.2311 20.4636C14.2311 17.118 16.9036 14.4059 20.2003 14.4059L50.5307 14.4059Z" fill="#00C172"/>
<path d="M37.0773 29.0769C40.3699 29.0769 43.0391 31.7287 43.0391 34.9999C43.0391 38.2711 40.3699 40.923 37.0773 40.923L6.46269 40.923C3.17008 40.923 0.5009 38.2711 0.5009 34.9999C0.5009 31.7287 3.17008 29.0769 6.46269 29.0769L37.0773 29.0769Z" fill="#016243"/>
</svg>
